<?xml version="1.0" encoding="utf-8"?>
<!-- Generator: Adobe Illustrator 22.0.0, SVG Export Plug-In . SVG Version: 6.00 Build 0)  -->
<svg version="1.1" id="Livello_1" xmlns="http://www.w3.org/2000/svg" xmlns:xlink="http://www.w3.org/1999/xlink" x="0px" y="0px"
	 viewBox="0 0 1670.4 1670.4" style="enable-background:new 0 0 1670.4 1670.4;" xml:space="preserve">
<g>
	<path d="M1065.3,1201.5c-13.2,43.8-15.5,74.1-6.9,90.9c8.7,16.8,22.7,19.4,42,7.7c19.3-11.7,41.8-37.2,67.2-76.4
		c25.5-39.2,48.4-93,68.8-161.2c-2,27.5-8.9,59.9-20.6,97c-11.7,37.2-27.3,72.1-46.6,104.7c-19.4,32.6-41.3,59.9-65.7,81.8
		c-24.5,21.9-49.9,30.3-76.4,25.2c-17.3-3.1-31.1-9.4-41.3-19.1c-10.2-9.7-18.1-21.9-23.7-36.7c-5.6-14.8-8.7-31.1-9.2-48.9
		s0.8-35.9,3.8-54.3c1-8.1,4.8-24.2,11.5-48.1c6.6-23.9,14.5-51.9,23.7-84c9.2-32.1,19.3-66.5,30.6-103.2
		c11.2-36.7,21.9-71.6,32.1-104.7c10.2-33.1,19.3-62.6,27.5-88.6c8.1-26,14.3-44.6,18.4-55.8c-50.9,100.9-97.8,193.6-140.6,278.1
		c-18.4,36.7-36.9,73.1-55.8,109.3c-18.8,36.2-36.4,69.8-52.7,100.9s-30.8,58.3-43.5,81.8c-12.7,23.4-22.7,40.7-29.8,52
		c-8.2,12.2-18.1,17.8-29.8,16.8c-11.7-1-22.9-6.1-33.6-15.3c-10.7-9.2-18.9-21.1-24.5-35.9c-5.6-14.8-5.9-29.3-0.8-43.6
		c2-5.1,8.1-23.9,18.3-56.5c10.2-32.6,22.4-71.8,36.7-117.7c14.3-45.8,29.8-95.8,46.6-149.8c16.8-54,32.8-105.2,48.1-153.6
		s28.5-91.2,39.7-128.4c11.2-37.2,18.8-62.4,22.9-75.7c-56.1,106-108,202.8-155.9,290.4c-20.4,37.7-40.8,75.1-61.1,112.3
		s-39,71.6-55.8,103.2c-16.8,31.6-31.6,58.8-44.3,81.8c-12.7,22.9-21.7,39-26.7,48.1c-5.1,8.2-11.5,12-19.1,11.5
		c-7.7-0.5-15-4.1-22.2-10.7c-7.1-6.6-12.5-15.5-16.1-26.8c-3.6-11.2-2.8-23.9,2.3-38.2c1-4.1,4.3-13.8,9.9-29
		c5.6-15.3,12-33.9,19.1-55.8c7.1-21.9,15.3-46.1,24.5-72.6c9.2-26.5,18.3-53,27.5-79.5c21.4-63.2,45.3-133.5,71.8-210.9
		c-9.2,13.3-22.9,30.3-41.2,51.2c-18.4,20.9-39.7,42.3-64.2,64.2c-24.5,21.9-50.4,42.5-77.9,61.9c-27.5,19.4-54.3,34.4-80.2,45.1
		c-26,10.7-50.2,15.3-72.6,13.8c-22.4-1.5-40.7-12.5-55-32.9c-12.2-18.3-16.5-38.2-13-59.6c3.6-21.4,10.4-40.7,20.6-58.1
		c10.2-17.3,21.6-31.1,34.4-41.3c12.7-10.2,22.2-14.2,28.3-12.2c-11.2,18.4-18.9,34.6-22.9,48.9c-5.1,12.2-7.1,23.4-6.1,33.6
		c1,10.2,7.1,15.8,18.3,16.8c25.4,1,53.2-10.9,83.3-35.9c30-25,60.1-56.3,90.2-94c30-37.7,59.3-78.7,87.9-123
		c28.5-44.3,54-86.4,76.4-126.1c22.4-39.7,40.7-73.3,55-100.8c14.3-27.5,22.9-43.3,26-47.4c5.1-10.2,13.8-15.8,26-16.8
		c12.2-1,23.9,1.5,35.1,7.7c11.2,6.1,20.1,15.3,26.8,27.5c6.6,12.2,7.9,26.5,3.8,42.8c-1,3.1-5.1,14.8-12.2,35.1
		c-7.1,20.4-15.8,45.3-26,74.9c-10.2,29.6-21.4,61.9-33.6,97c-12.2,35.2-23.9,69.3-35.1,102.4c-11.2,33.1-21.1,63.7-29.8,91.7
		c-8.7,28-15,49.2-19.1,63.4C723.5,756.3,765.2,676.4,804,604c16.3-30.6,32.6-61.1,48.9-91.7c16.3-30.6,31.6-58.8,45.8-84.8
		c14.2-26,26.5-48.6,36.7-68c10.2-19.3,17.8-33.1,22.9-41.3c5.1-10.2,13.8-16.3,26-18.3c12.2-2,23.9-0.2,35.1,5.4
		c11.2,5.6,20.4,15,27.5,28.3c7.1,13.2,8.7,30.6,4.6,51.9c-2,7.1-7.9,27.5-17.6,61.1c-9.7,33.6-21.9,73.9-36.7,120.7
		c-14.8,46.9-30.6,97-47.4,150.5c-16.8,53.5-32.9,104.7-48.1,153.6c-15.3,48.9-28.8,91.7-40.5,128.4c-11.7,36.7-19.6,61.1-23.7,73.4
		c70.3-130.4,133.4-249.1,189.5-356.1c24.4-45.8,48.4-90.9,71.8-135.2s44.6-84.6,63.4-120.7c18.8-36.2,34.9-67,48.1-92.5
		c13.2-25.5,21.4-41.8,24.5-48.9c6.1-12.2,15.8-19.3,29-21.4c13.2-2,26.5-0.8,39.7,3.8c13.2,4.6,24.7,11.7,34.4,21.4
		c9.7,9.7,14,19.1,13,28.3c-1,7.1-8.4,31.1-22.2,71.8c-13.8,40.7-30.3,90.4-49.7,149c-19.4,58.6-40.8,121.7-64.2,189.5
		s-45.3,131.9-65.7,192.5c-20.4,60.6-38.5,113.6-54.2,158.9C1079.3,1159,1069.4,1188.3,1065.3,1201.5z"/>
</g>
</svg>
